<svg width="32" height="35" viewBox="0 0 32 35" fill="none" xmlns="http://www.w3.org/2000/svg">
<path d="M21.7708 8.43746V7.19579C21.7708 5.4573 21.7708 4.58805 21.4325 3.92403C21.1349 3.33994 20.66 2.86507 20.0759 2.56746C19.4119 2.22913 18.5427 2.22913 16.8042 2.22913H14.3208C12.5823 2.22913 11.7131 2.22913 11.0491 2.56746C10.465 2.86507 9.99011 3.33994 9.6925 3.92403C9.35417 4.58805 9.35417 5.4573 9.35417 7.19579V8.43746M12.4583 16.9739V24.7343M18.6667 16.9739V24.7343M1.59375 8.43746H29.5312M26.4271 8.43746V25.8208C26.4271 28.4285 26.4271 29.7324 25.9196 30.7284C25.4732 31.6046 24.7609 32.3169 23.8847 32.7633C22.8887 33.2708 21.5848 33.2708 18.9771 33.2708H12.1479C9.54017 33.2708 8.2363 33.2708 7.24027 32.7633C6.36414 32.3169 5.65183 31.6046 5.20542 30.7284C4.69792 29.7324 4.69792 28.4285 4.69792 25.8208V8.43746" stroke="#D92D20" stroke-width="3.10417" strokeLinecap="round" strokeLinejoin="round"/>
</svg>
