<svg width="20" height="18" viewBox="0 0 20 18" fill="none" xmlns="http://www.w3.org/2000/svg">
<path d="M9.99992 16.3334H3.76658C2.73982 16.3334 2.22644 16.3334 1.83427 16.1336C1.48931 15.9578 1.20884 15.6774 1.03307 15.3324C0.833252 14.9402 0.833252 14.4268 0.833252 13.4001V4.60008C0.833252 3.57332 0.833252 3.05994 1.03307 2.66777C1.20884 2.3228 1.48931 2.04234 1.83427 1.86657C2.22644 1.66675 2.73982 1.66675 3.76658 1.66675H4.13325C6.18678 1.66675 7.21354 1.66675 7.99788 2.06639C8.68781 2.41793 9.24874 2.97886 9.60028 3.66878C9.99992 4.45313 9.99992 5.47989 9.99992 7.53341M9.99992 16.3334V7.53341M9.99992 16.3334H16.2333C17.26 16.3334 17.7734 16.3334 18.1656 16.1336C18.5105 15.9578 18.791 15.6774 18.9668 15.3324C19.1666 14.9402 19.1666 14.4268 19.1666 13.4001V4.60008C19.1666 3.57332 19.1666 3.05994 18.9668 2.66777C18.791 2.3228 18.5105 2.04234 18.1656 1.86657C17.7734 1.66675 17.26 1.66675 16.2333 1.66675H15.8666C13.8131 1.66675 12.7863 1.66675 12.002 2.06639C11.312 2.41793 10.7511 2.97886 10.3996 3.66878C9.99992 4.45313 9.99992 5.47989 9.99992 7.53341" stroke="#D0D5DD" stroke-width="1.5" strokeLinecap="round" strokeLinejoin="round"/>
</svg>
