<svg width="20" height="20" viewBox="0 0 20 20" fill="none" xmlns="http://www.w3.org/2000/svg">
<path d="M8.16658 15.1871V17.3334C8.16658 18.3459 8.9874 19.1667 9.99992 19.1667C11.0124 19.1667 11.8333 18.3459 11.8333 17.3334V15.1871M9.99992 0.833374V1.75004M1.74992 10H0.833252M4.04159 4.04171L3.4915 3.49162M15.9583 4.04171L16.5085 3.49162M19.1666 10H18.2499M15.4999 10C15.4999 13.0376 13.0375 15.5 9.99992 15.5C6.96235 15.5 4.49992 13.0376 4.49992 10C4.49992 6.96247 6.96235 4.50004 9.99992 4.50004C13.0375 4.50004 15.4999 6.96247 15.4999 10Z" stroke="#D0D5DD" stroke-width="1.5" strokeLinecap="round" strokeLinejoin="round"/>
</svg>
