<svg width="16" height="18" viewBox="0 0 16 18" fill="none" xmlns="http://www.w3.org/2000/svg">
<path d="M11.3333 3.99996V3.33329C11.3333 2.39987 11.3333 1.93316 11.1517 1.57664C10.9919 1.26304 10.7369 1.00807 10.4233 0.848282C10.0668 0.666626 9.60009 0.666626 8.66667 0.666626H7.33333C6.39991 0.666626 5.9332 0.666626 5.57668 0.848282C5.26308 1.00807 5.00811 1.26304 4.84832 1.57664C4.66667 1.93316 4.66667 2.39987 4.66667 3.33329V3.99996M0.5 3.99996H15.5M13.8333 3.99996V13.3333C13.8333 14.7334 13.8333 15.4335 13.5608 15.9683C13.3212 16.4387 12.9387 16.8211 12.4683 17.0608C11.9335 17.3333 11.2335 17.3333 9.83333 17.3333H6.16667C4.76654 17.3333 4.06647 17.3333 3.53169 17.0608C3.06129 16.8211 2.67883 16.4387 2.43915 15.9683C2.16667 15.4335 2.16667 14.7334 2.16667 13.3333V3.99996" stroke="#B42318" stroke-linecap="round" stroke-linejoin="round"/>
</svg>
