<svg width="16" height="22" viewBox="0 0 16 22" fill="none" xmlns="http://www.w3.org/2000/svg">
<path d="M7.99992 1.375H4.79158C3.01967 1.375 1.58325 2.81142 1.58325 4.58333C1.58325 6.35525 3.01967 7.79167 4.79158 7.79167M7.99992 1.375V7.79167M7.99992 1.375H11.2083C12.9802 1.375 14.4166 2.81142 14.4166 4.58333C14.4166 6.35525 12.9802 7.79167 11.2083 7.79167M7.99992 7.79167H4.79158M7.99992 7.79167V14.2083M7.99992 7.79167H11.2083M4.79158 7.79167C3.01967 7.79167 1.58325 9.22809 1.58325 11C1.58325 12.7719 3.01967 14.2083 4.79158 14.2083M7.99992 14.2083H4.79158M7.99992 14.2083V17.4167C7.99992 19.1886 6.5635 20.625 4.79158 20.625C3.01967 20.625 1.58325 19.1886 1.58325 17.4167C1.58325 15.6448 3.01967 14.2083 4.79158 14.2083M11.2083 7.79167C12.9802 7.79167 14.4166 9.22809 14.4166 11C14.4166 12.7719 12.9802 14.2083 11.2083 14.2083C9.43634 14.2083 7.99992 12.7719 7.99992 11C7.99992 9.22809 9.43634 7.79167 11.2083 7.79167Z" stroke="#D0D5DD" stroke-width="1.5" strokeLinecap="round" strokeLinejoin="round"/>
</svg>
