<svg width="18" height="19" viewBox="0 0 18 19" fill="none" xmlns="http://www.w3.org/2000/svg">
<path d="M5.33333 14.5834H12.6667M8.09955 1.53373L1.88244 6.36926C1.46685 6.69249 1.25906 6.85411 1.10936 7.05651C0.976752 7.2358 0.877968 7.43778 0.817858 7.65252C0.75 7.89495 0.75 8.1582 0.75 8.68469V15.3167C0.75 16.3435 0.75 16.8569 0.949821 17.249C1.12559 17.594 1.40605 17.8745 1.75102 18.0502C2.14319 18.25 2.65657 18.25 3.68333 18.25H14.3167C15.3434 18.25 15.8568 18.25 16.249 18.0502C16.5939 17.8745 16.8744 17.594 17.0502 17.249C17.25 16.8569 17.25 16.3435 17.25 15.3167V8.68469C17.25 8.1582 17.25 7.89495 17.1821 7.65252C17.122 7.43778 17.0232 7.2358 16.8906 7.05651C16.7409 6.85411 16.5331 6.69249 16.1176 6.36926L9.90045 1.53373C9.5784 1.28324 9.41737 1.158 9.23957 1.10986C9.08268 1.06738 8.91732 1.06738 8.76043 1.10986C8.58263 1.158 8.4216 1.28324 8.09955 1.53373Z" stroke="#D0D5DD" stroke-width="1.5" stroke-linecap="round" stroke-linejoin="round"/>
</svg>
