<svg width="20" height="18" viewBox="0 0 20 18" fill="none" xmlns="http://www.w3.org/2000/svg">
<path d="M6.33325 17.25V4.41667C6.33325 3.56419 6.33325 3.13796 6.42696 2.78825C6.68124 1.83924 7.4225 1.09799 8.3715 0.843704C8.72121 0.75 9.14744 0.75 9.99992 0.75C10.8524 0.75 11.2786 0.75 11.6283 0.843704C12.5773 1.09799 13.3186 1.83924 13.5729 2.78825C13.6666 3.13796 13.6666 3.56419 13.6666 4.41667V17.25M3.76659 17.25H16.2333C17.26 17.25 17.7734 17.25 18.1656 17.0502C18.5105 16.8744 18.791 16.5939 18.9668 16.249C19.1666 15.8568 19.1666 15.3434 19.1666 14.3167V7.35C19.1666 6.32324 19.1666 5.80986 18.9668 5.41768C18.791 5.07272 18.5105 4.79226 18.1656 4.61649C17.7734 4.41667 17.26 4.41667 16.2333 4.41667H3.76658C2.73982 4.41667 2.22644 4.41667 1.83427 4.61649C1.48931 4.79226 1.20884 5.07272 1.03307 5.41768C0.833252 5.80986 0.833252 6.32324 0.833252 7.35V14.3167C0.833252 15.3434 0.833252 15.8568 1.03307 16.249C1.20884 16.5939 1.48931 16.8744 1.83427 17.0502C2.22644 17.25 2.73982 17.25 3.76659 17.25Z" stroke="#D0D5DD" strokeWidth="1.5" strokeLinecap="round" strokeLinejoin="round"/>
</svg>
