<svg width="28" height="28" viewBox="0 0 28 28" fill="none" xmlns="http://www.w3.org/2000/svg">
<path d="M13.7217 0C7.41621 0 2.11896 4.27068 0.529785 10.1021C0.649401 10.2565 1.26456 10.5995 1.36709 10.6681C1.65759 10.8568 1.96517 11.0455 2.27275 11.2341C2.88792 11.5943 3.52017 11.903 4.16951 12.1774C5.4511 12.7091 6.78396 13.0693 8.16808 13.2408C8.52693 13.3094 8.90286 13.3266 9.26171 13.3266C9.26171 13.1894 9.24462 13.0522 9.24462 12.9149C9.22754 12.246 9.26171 11.56 9.33006 10.8911C9.36424 10.6167 9.38133 10.3594 9.43259 10.085C9.44968 10.0335 9.44968 9.96492 9.46677 9.91346V9.86201C9.89396 7.56373 11.0901 5.52273 13.3115 4.52795C15.6013 3.51602 18.2158 3.92765 19.6512 6.08872C20.7961 8.04397 20.7448 10.4795 19.5145 12.3833C18.0107 14.733 15.3621 15.865 12.5768 16.2423C12.7476 17.7859 12.9869 19.2781 13.3115 20.8732C13.602 22.2281 13.9267 23.5659 14.3197 24.9037C14.3368 24.9723 14.3539 25.0409 14.3881 25.1095C14.6102 25.8813 14.8665 26.6532 15.1229 27.4078C22.0435 26.7218 27.4433 20.856 27.4433 13.7382C27.4091 6.15733 21.2745 0 13.7217 0Z" fill="#635BFF"/>
<path d="M16.6275 11.1526C17.0547 10.6723 17.3281 10.0721 17.4136 9.43745C17.4306 9.30024 17.4477 9.16303 17.4477 9.04297C17.4648 8.63134 17.3623 8.23686 17.1743 7.87668C17.0034 7.5508 16.7471 7.29354 16.4225 7.15633C15.0554 6.48742 13.4321 7.91098 12.8511 9.09442C12.8511 9.09442 12.8511 9.11158 12.834 9.11158C12.0138 10.6723 12.2359 13.1764 12.2359 13.1764C13.415 13.0049 14.5428 12.5933 15.5851 11.993C15.9611 11.77 16.3199 11.4956 16.6275 11.1526Z" fill="#635BFF"/>
<path d="M9.44962 16.4641C8.44143 16.4298 7.43325 16.3097 6.42506 16.1211C4.13528 15.6751 1.96511 14.7832 0 13.5141V13.8399C0 20.7862 5.12638 26.5148 11.7907 27.4409C10.8508 24.5081 10.1673 21.5066 9.72303 18.4708C9.63759 17.8362 9.53506 17.1673 9.44962 16.4641Z" fill="#635BFF"/>
</svg>
