<svg width="18" height="20" viewBox="0 0 18 20" fill="none" xmlns="http://www.w3.org/2000/svg">
<path d="M6.6122 16.7568L7.14794 17.9617C7.30721 18.3203 7.56712 18.6251 7.89615 18.839C8.22519 19.0528 8.60921 19.1666 9.00165 19.1666C9.39408 19.1666 9.77811 19.0528 10.1071 18.839C10.4362 18.6251 10.6961 18.3203 10.8554 17.9617L11.3911 16.7568C11.5818 16.3292 11.9026 15.9728 12.3078 15.7383C12.7155 15.5031 13.1871 15.4029 13.6553 15.452L14.9661 15.5916C15.3563 15.6329 15.7501 15.56 16.0997 15.382C16.4494 15.2039 16.7398 14.9282 16.9359 14.5883C17.1322 14.2487 17.2258 13.8593 17.2052 13.4676C17.1846 13.0758 17.0507 12.6984 16.8198 12.3812L16.0437 11.3148C15.7673 10.9323 15.6197 10.4718 15.622 9.99992C15.6219 9.52929 15.771 9.07074 16.0478 8.6901L16.8239 7.62371C17.0548 7.30653 17.1886 6.92915 17.2092 6.53737C17.2298 6.14559 17.1363 5.75625 16.94 5.41659C16.7439 5.07672 16.4534 4.80103 16.1038 4.62296C15.7542 4.44489 15.3604 4.37207 14.9702 4.41334L13.6593 4.55288C13.1912 4.60204 12.7196 4.50186 12.3118 4.26668C11.9059 4.03082 11.585 3.6725 11.3952 3.24307L10.8554 2.03816C10.6961 1.67949 10.4362 1.37474 10.1071 1.16087C9.77811 0.946994 9.39408 0.833188 9.00165 0.833252C8.60921 0.833188 8.22519 0.946994 7.89615 1.16087C7.56712 1.37474 7.30721 1.67949 7.14794 2.03816L6.6122 3.24307C6.42239 3.6725 6.1015 4.03082 5.69554 4.26668C5.28782 4.50186 4.81615 4.60204 4.34804 4.55288L3.03313 4.41334C2.64293 4.37207 2.24914 4.44489 1.8995 4.62296C1.54986 4.80103 1.25939 5.07672 1.06331 5.41659C0.866983 5.75625 0.773449 6.14559 0.794059 6.53737C0.81467 6.92915 0.94854 7.30653 1.17943 7.62371L1.95554 8.6901C2.23232 9.07074 2.38136 9.52929 2.38128 9.99992C2.38136 10.4705 2.23232 10.9291 1.95554 11.3097L1.17943 12.3761C0.94854 12.6933 0.81467 13.0707 0.794059 13.4625C0.773449 13.8542 0.866983 14.2436 1.06331 14.5833C1.25959 14.9229 1.55009 15.1985 1.89968 15.3765C2.24927 15.5546 2.64296 15.6275 3.03313 15.5865L4.34396 15.447C4.81208 15.3978 5.28374 15.498 5.69146 15.7332C6.09895 15.9684 6.42132 16.3267 6.6122 16.7568Z" stroke="#D0D5DD" strokeWidth="1.5" strokeLinecap="round" strokeLinejoin="round"/>
<path d="M9.00001 12.7499C10.5188 12.7499 11.75 11.5187 11.75 9.99992C11.75 8.48114 10.5188 7.24992 9.00001 7.24992C7.48123 7.24992 6.25001 8.48114 6.25001 9.99992C6.25001 11.5187 7.48123 12.7499 9.00001 12.7499Z" stroke="#D0D5DD" strokeWidth="1.5" strokeLinecap="round" strokeLinejoin="round"/>
</svg>
